<mxfile host="app.diagrams.net" agent="Mozilla/5.0 (Windows NT 10.0; Win64; x64) AppleWebKit/537.36 (KHTML, like Gecko) Chrome/130.0.0.0 Safari/537.36" version="26.2.13">
  <diagram name="Trang-1" id="RSAA1ESuZHXnOfXgkJK2">
    <mxGraphModel dx="2183" dy="2359" grid="1" gridSize="10" guides="1" tooltips="1" connect="1" arrows="1" fold="1" page="1" pageScale="1" pageWidth="827" pageHeight="1169" math="0" shadow="0">
      <root>
        <mxCell id="0" />
        <mxCell id="1" parent="0" />
        <mxCell id="faN61myUjcGSdalwcWwm-1" value="&lt;div&gt;Khách Hàng&lt;/div&gt;" style="rounded=0;whiteSpace=wrap;html=1;" vertex="1" parent="1">
          <mxGeometry x="294" y="20" width="120" height="60" as="geometry" />
        </mxCell>
        <mxCell id="faN61myUjcGSdalwcWwm-2" value="Nhà cung cấp" style="rounded=0;whiteSpace=wrap;html=1;" vertex="1" parent="1">
          <mxGeometry x="40" y="180" width="120" height="60" as="geometry" />
        </mxCell>
        <mxCell id="faN61myUjcGSdalwcWwm-3" value="Quản lý" style="rounded=0;whiteSpace=wrap;html=1;" vertex="1" parent="1">
          <mxGeometry x="680" y="180" width="120" height="60" as="geometry" />
        </mxCell>
        <mxCell id="faN61myUjcGSdalwcWwm-5" value="&lt;div&gt;1.0 Quản lý sản phẩm&lt;/div&gt;" style="ellipse;whiteSpace=wrap;html=1;aspect=fixed;" vertex="1" parent="1">
          <mxGeometry x="920" y="20" width="80" height="80" as="geometry" />
        </mxCell>
        <mxCell id="faN61myUjcGSdalwcWwm-6" value="&lt;div&gt;2.0 Quản lý đơn hàng&lt;/div&gt;" style="ellipse;whiteSpace=wrap;html=1;aspect=fixed;" vertex="1" parent="1">
          <mxGeometry x="530" y="-100" width="80" height="80" as="geometry" />
        </mxCell>
        <mxCell id="faN61myUjcGSdalwcWwm-7" value="&lt;div&gt;3.0 Quản lý kho&lt;/div&gt;" style="ellipse;whiteSpace=wrap;html=1;aspect=fixed;" vertex="1" parent="1">
          <mxGeometry x="490" y="330" width="80" height="80" as="geometry" />
        </mxCell>
        <mxCell id="faN61myUjcGSdalwcWwm-8" value="&lt;div&gt;5.0 Quản lý nhập hàng&lt;/div&gt;" style="ellipse;whiteSpace=wrap;html=1;aspect=fixed;" vertex="1" parent="1">
          <mxGeometry x="214" y="400" width="80" height="80" as="geometry" />
        </mxCell>
        <mxCell id="faN61myUjcGSdalwcWwm-9" value="&lt;div&gt;6.0 Báo cáo&lt;/div&gt;" style="ellipse;whiteSpace=wrap;html=1;aspect=fixed;" vertex="1" parent="1">
          <mxGeometry x="920" y="410" width="80" height="80" as="geometry" />
        </mxCell>
        <mxCell id="faN61myUjcGSdalwcWwm-10" value="&lt;div&gt;4.0 Quản lý thanh toán&lt;/div&gt;" style="ellipse;whiteSpace=wrap;html=1;aspect=fixed;" vertex="1" parent="1">
          <mxGeometry x="130" y="-100" width="80" height="80" as="geometry" />
        </mxCell>
        <mxCell id="faN61myUjcGSdalwcWwm-11" value="&lt;div&gt;D1: Danh mục sản phẩm&lt;/div&gt;" style="html=1;dashed=0;whiteSpace=wrap;shape=partialRectangle;right=0;left=0;" vertex="1" parent="1">
          <mxGeometry x="727" y="-75" width="100" height="30" as="geometry" />
        </mxCell>
        <mxCell id="faN61myUjcGSdalwcWwm-12" value="&lt;div&gt;D2: Đơn hàng&lt;/div&gt;" style="html=1;dashed=0;whiteSpace=wrap;shape=partialRectangle;right=0;left=0;" vertex="1" parent="1">
          <mxGeometry x="670" y="80" width="100" height="30" as="geometry" />
        </mxCell>
        <mxCell id="faN61myUjcGSdalwcWwm-13" value="&lt;div&gt;D3: Kho&lt;/div&gt;" style="html=1;dashed=0;whiteSpace=wrap;shape=partialRectangle;right=0;left=0;" vertex="1" parent="1">
          <mxGeometry x="370" y="240" width="100" height="30" as="geometry" />
        </mxCell>
        <mxCell id="faN61myUjcGSdalwcWwm-14" value="&lt;div&gt;D4: Thanh toán&lt;/div&gt;" style="html=1;dashed=0;whiteSpace=wrap;shape=partialRectangle;right=0;left=0;" vertex="1" parent="1">
          <mxGeometry x="445" y="90" width="100" height="30" as="geometry" />
        </mxCell>
        <mxCell id="faN61myUjcGSdalwcWwm-15" value="&lt;div&gt;D5: Nhà cung cấp&lt;/div&gt;" style="html=1;dashed=0;whiteSpace=wrap;shape=partialRectangle;right=0;left=0;" vertex="1" parent="1">
          <mxGeometry x="370" y="700" width="100" height="30" as="geometry" />
        </mxCell>
        <mxCell id="faN61myUjcGSdalwcWwm-16" value="" style="edgeStyle=segmentEdgeStyle;endArrow=classic;html=1;curved=0;rounded=0;endSize=8;startSize=8;exitX=1;exitY=0.5;exitDx=0;exitDy=0;entryX=0.5;entryY=1;entryDx=0;entryDy=0;" edge="1" parent="1" source="faN61myUjcGSdalwcWwm-1" target="faN61myUjcGSdalwcWwm-6">
          <mxGeometry width="50" height="50" relative="1" as="geometry">
            <mxPoint x="400" y="60" as="sourcePoint" />
            <mxPoint x="450" y="10" as="targetPoint" />
          </mxGeometry>
        </mxCell>
        <mxCell id="faN61myUjcGSdalwcWwm-18" value="&lt;div&gt;Thông tin đặt hàng&lt;/div&gt;" style="text;html=1;align=center;verticalAlign=middle;whiteSpace=wrap;rounded=0;" vertex="1" parent="1">
          <mxGeometry x="420" y="20" width="150" height="30" as="geometry" />
        </mxCell>
        <mxCell id="faN61myUjcGSdalwcWwm-21" value="" style="endArrow=classic;html=1;rounded=0;entryX=0.413;entryY=1.013;entryDx=0;entryDy=0;entryPerimeter=0;" edge="1" parent="1" target="faN61myUjcGSdalwcWwm-10">
          <mxGeometry width="50" height="50" relative="1" as="geometry">
            <mxPoint x="160" y="50" as="sourcePoint" />
            <mxPoint x="430" y="90" as="targetPoint" />
            <Array as="points" />
          </mxGeometry>
        </mxCell>
        <mxCell id="faN61myUjcGSdalwcWwm-22" value="" style="endArrow=none;html=1;rounded=0;entryX=0;entryY=0.5;entryDx=0;entryDy=0;" edge="1" parent="1" target="faN61myUjcGSdalwcWwm-1">
          <mxGeometry width="50" height="50" relative="1" as="geometry">
            <mxPoint x="160" y="50" as="sourcePoint" />
            <mxPoint x="290" y="110" as="targetPoint" />
          </mxGeometry>
        </mxCell>
        <mxCell id="faN61myUjcGSdalwcWwm-24" value="&lt;div&gt;Thông tin thanh toán&lt;/div&gt;" style="text;html=1;align=center;verticalAlign=middle;whiteSpace=wrap;rounded=0;" vertex="1" parent="1">
          <mxGeometry x="174" y="20" width="120" height="30" as="geometry" />
        </mxCell>
        <mxCell id="faN61myUjcGSdalwcWwm-25" value="" style="endArrow=none;html=1;rounded=0;exitX=0.5;exitY=1;exitDx=0;exitDy=0;" edge="1" parent="1" source="faN61myUjcGSdalwcWwm-2">
          <mxGeometry width="50" height="50" relative="1" as="geometry">
            <mxPoint x="380" y="140" as="sourcePoint" />
            <mxPoint x="100" y="340" as="targetPoint" />
          </mxGeometry>
        </mxCell>
        <mxCell id="faN61myUjcGSdalwcWwm-27" value="" style="endArrow=none;html=1;rounded=0;" edge="1" parent="1">
          <mxGeometry width="50" height="50" relative="1" as="geometry">
            <mxPoint x="100" y="340" as="sourcePoint" />
            <mxPoint x="250" y="340" as="targetPoint" />
          </mxGeometry>
        </mxCell>
        <mxCell id="faN61myUjcGSdalwcWwm-28" value="" style="endArrow=classic;html=1;rounded=0;" edge="1" parent="1">
          <mxGeometry width="50" height="50" relative="1" as="geometry">
            <mxPoint x="250" y="340" as="sourcePoint" />
            <mxPoint x="250" y="400" as="targetPoint" />
          </mxGeometry>
        </mxCell>
        <mxCell id="faN61myUjcGSdalwcWwm-29" value="&lt;div&gt;Thông tin nhập hàng&lt;/div&gt;" style="text;html=1;align=center;verticalAlign=middle;whiteSpace=wrap;rounded=0;" vertex="1" parent="1">
          <mxGeometry x="110" y="310" width="140" height="30" as="geometry" />
        </mxCell>
        <mxCell id="faN61myUjcGSdalwcWwm-30" value="" style="endArrow=none;html=1;rounded=0;exitX=1;exitY=0.5;exitDx=0;exitDy=0;" edge="1" parent="1" source="faN61myUjcGSdalwcWwm-3">
          <mxGeometry width="50" height="50" relative="1" as="geometry">
            <mxPoint x="380" y="340" as="sourcePoint" />
            <mxPoint x="960" y="210" as="targetPoint" />
          </mxGeometry>
        </mxCell>
        <mxCell id="faN61myUjcGSdalwcWwm-31" value="" style="endArrow=classic;html=1;rounded=0;entryX=0.5;entryY=1;entryDx=0;entryDy=0;" edge="1" parent="1" target="faN61myUjcGSdalwcWwm-5">
          <mxGeometry width="50" height="50" relative="1" as="geometry">
            <mxPoint x="960" y="210" as="sourcePoint" />
            <mxPoint x="800" y="190" as="targetPoint" />
          </mxGeometry>
        </mxCell>
        <mxCell id="faN61myUjcGSdalwcWwm-32" value="&lt;div&gt;Thông tin sản phẩm&lt;/div&gt;" style="text;html=1;align=center;verticalAlign=middle;whiteSpace=wrap;rounded=0;" vertex="1" parent="1">
          <mxGeometry x="827" y="180" width="110" height="30" as="geometry" />
        </mxCell>
        <mxCell id="faN61myUjcGSdalwcWwm-34" value="" style="endArrow=none;html=1;rounded=0;exitX=0.5;exitY=1;exitDx=0;exitDy=0;" edge="1" parent="1" source="faN61myUjcGSdalwcWwm-3">
          <mxGeometry width="50" height="50" relative="1" as="geometry">
            <mxPoint x="750" y="240" as="sourcePoint" />
            <mxPoint x="740" y="320" as="targetPoint" />
          </mxGeometry>
        </mxCell>
        <mxCell id="faN61myUjcGSdalwcWwm-35" value="" style="endArrow=none;html=1;rounded=0;" edge="1" parent="1">
          <mxGeometry width="50" height="50" relative="1" as="geometry">
            <mxPoint x="740" y="320" as="sourcePoint" />
            <mxPoint x="960" y="320" as="targetPoint" />
          </mxGeometry>
        </mxCell>
        <mxCell id="faN61myUjcGSdalwcWwm-36" value="" style="endArrow=classic;html=1;rounded=0;entryX=0.5;entryY=0;entryDx=0;entryDy=0;" edge="1" parent="1" target="faN61myUjcGSdalwcWwm-9">
          <mxGeometry width="50" height="50" relative="1" as="geometry">
            <mxPoint x="960" y="320" as="sourcePoint" />
            <mxPoint x="800" y="380" as="targetPoint" />
          </mxGeometry>
        </mxCell>
        <mxCell id="faN61myUjcGSdalwcWwm-37" value="&lt;div&gt;Yêu cầu quản lý&lt;/div&gt;" style="text;html=1;align=center;verticalAlign=middle;whiteSpace=wrap;rounded=0;" vertex="1" parent="1">
          <mxGeometry x="813" y="290" width="107" height="30" as="geometry" />
        </mxCell>
        <mxCell id="faN61myUjcGSdalwcWwm-38" value="" style="endArrow=none;html=1;rounded=0;" edge="1" parent="1">
          <mxGeometry width="50" height="50" relative="1" as="geometry">
            <mxPoint x="400" y="-60" as="sourcePoint" />
            <mxPoint x="530" y="-60" as="targetPoint" />
          </mxGeometry>
        </mxCell>
        <mxCell id="faN61myUjcGSdalwcWwm-39" value="" style="endArrow=classic;html=1;rounded=0;entryX=0.894;entryY=0.066;entryDx=0;entryDy=0;entryPerimeter=0;" edge="1" parent="1" target="faN61myUjcGSdalwcWwm-1">
          <mxGeometry width="50" height="50" relative="1" as="geometry">
            <mxPoint x="400" y="-60" as="sourcePoint" />
            <mxPoint x="660" y="-180" as="targetPoint" />
          </mxGeometry>
        </mxCell>
        <mxCell id="faN61myUjcGSdalwcWwm-40" value="&lt;div&gt;Xác nhận đơn hàng&lt;/div&gt;" style="text;html=1;align=center;verticalAlign=middle;whiteSpace=wrap;rounded=0;" vertex="1" parent="1">
          <mxGeometry x="420" y="-90" width="110" height="30" as="geometry" />
        </mxCell>
        <mxCell id="faN61myUjcGSdalwcWwm-45" value="" style="endArrow=none;html=1;rounded=0;exitX=1;exitY=0.5;exitDx=0;exitDy=0;" edge="1" parent="1" source="faN61myUjcGSdalwcWwm-10">
          <mxGeometry width="50" height="50" relative="1" as="geometry">
            <mxPoint x="480" y="30" as="sourcePoint" />
            <mxPoint x="310" y="-60" as="targetPoint" />
          </mxGeometry>
        </mxCell>
        <mxCell id="faN61myUjcGSdalwcWwm-46" value="" style="endArrow=classic;html=1;rounded=0;" edge="1" parent="1">
          <mxGeometry width="50" height="50" relative="1" as="geometry">
            <mxPoint x="420" y="150" as="sourcePoint" />
            <mxPoint x="420" y="240" as="targetPoint" />
          </mxGeometry>
        </mxCell>
        <mxCell id="faN61myUjcGSdalwcWwm-47" value="" style="endArrow=classic;html=1;rounded=0;entryX=0.143;entryY=-0.013;entryDx=0;entryDy=0;entryPerimeter=0;" edge="1" parent="1" target="faN61myUjcGSdalwcWwm-1">
          <mxGeometry width="50" height="50" relative="1" as="geometry">
            <mxPoint x="310" y="-60" as="sourcePoint" />
            <mxPoint x="470" y="-30" as="targetPoint" />
          </mxGeometry>
        </mxCell>
        <mxCell id="faN61myUjcGSdalwcWwm-48" value="&lt;div&gt;Hóa đơn&lt;/div&gt;" style="text;html=1;align=center;verticalAlign=middle;whiteSpace=wrap;rounded=0;" vertex="1" parent="1">
          <mxGeometry x="224" y="-90" width="60" height="30" as="geometry" />
        </mxCell>
        <mxCell id="faN61myUjcGSdalwcWwm-49" value="" style="endArrow=none;html=1;rounded=0;exitX=0;exitY=0.5;exitDx=0;exitDy=0;" edge="1" parent="1" source="faN61myUjcGSdalwcWwm-8">
          <mxGeometry width="50" height="50" relative="1" as="geometry">
            <mxPoint x="610" y="340" as="sourcePoint" />
            <mxPoint x="60" y="440" as="targetPoint" />
          </mxGeometry>
        </mxCell>
        <mxCell id="faN61myUjcGSdalwcWwm-50" value="" style="endArrow=classic;html=1;rounded=0;entryX=0.178;entryY=1.022;entryDx=0;entryDy=0;entryPerimeter=0;" edge="1" parent="1" target="faN61myUjcGSdalwcWwm-2">
          <mxGeometry width="50" height="50" relative="1" as="geometry">
            <mxPoint x="60" y="440" as="sourcePoint" />
            <mxPoint x="660" y="290" as="targetPoint" />
          </mxGeometry>
        </mxCell>
        <mxCell id="faN61myUjcGSdalwcWwm-51" value="&lt;div&gt;Xác nhận nhập hàng&lt;/div&gt;" style="text;html=1;align=center;verticalAlign=middle;whiteSpace=wrap;rounded=0;" vertex="1" parent="1">
          <mxGeometry x="80" y="410" width="130" height="30" as="geometry" />
        </mxCell>
        <mxCell id="faN61myUjcGSdalwcWwm-55" value="" style="endArrow=none;html=1;rounded=0;exitX=0;exitY=0.5;exitDx=0;exitDy=0;" edge="1" parent="1" source="faN61myUjcGSdalwcWwm-9">
          <mxGeometry width="50" height="50" relative="1" as="geometry">
            <mxPoint x="570" y="340" as="sourcePoint" />
            <mxPoint x="710" y="450" as="targetPoint" />
          </mxGeometry>
        </mxCell>
        <mxCell id="faN61myUjcGSdalwcWwm-56" value="" style="endArrow=classic;html=1;rounded=0;entryX=0.25;entryY=1;entryDx=0;entryDy=0;" edge="1" parent="1" target="faN61myUjcGSdalwcWwm-3">
          <mxGeometry width="50" height="50" relative="1" as="geometry">
            <mxPoint x="710" y="450" as="sourcePoint" />
            <mxPoint x="620" y="290" as="targetPoint" />
          </mxGeometry>
        </mxCell>
        <mxCell id="faN61myUjcGSdalwcWwm-57" value="&lt;div&gt;Báo cáo&lt;/div&gt;" style="text;html=1;align=center;verticalAlign=middle;whiteSpace=wrap;rounded=0;" vertex="1" parent="1">
          <mxGeometry x="800" y="420" width="60" height="30" as="geometry" />
        </mxCell>
        <mxCell id="faN61myUjcGSdalwcWwm-59" value="" style="endArrow=none;html=1;rounded=0;exitX=0.5;exitY=0;exitDx=0;exitDy=0;" edge="1" parent="1" source="faN61myUjcGSdalwcWwm-5">
          <mxGeometry width="50" height="50" relative="1" as="geometry">
            <mxPoint x="600" y="180" as="sourcePoint" />
            <mxPoint x="960" y="-60" as="targetPoint" />
          </mxGeometry>
        </mxCell>
        <mxCell id="faN61myUjcGSdalwcWwm-60" value="" style="endArrow=classic;html=1;rounded=0;" edge="1" parent="1" target="faN61myUjcGSdalwcWwm-11">
          <mxGeometry width="50" height="50" relative="1" as="geometry">
            <mxPoint x="960" y="-60" as="sourcePoint" />
            <mxPoint x="830" y="-60" as="targetPoint" />
          </mxGeometry>
        </mxCell>
        <mxCell id="faN61myUjcGSdalwcWwm-61" value="&lt;div&gt;Lưu sản phẩm&lt;/div&gt;" style="text;html=1;align=center;verticalAlign=middle;whiteSpace=wrap;rounded=0;" vertex="1" parent="1">
          <mxGeometry x="850" y="-90" width="108" height="30" as="geometry" />
        </mxCell>
        <mxCell id="faN61myUjcGSdalwcWwm-62" value="" style="endArrow=none;html=1;rounded=0;exitX=1;exitY=0.75;exitDx=0;exitDy=0;" edge="1" parent="1" source="faN61myUjcGSdalwcWwm-11">
          <mxGeometry width="50" height="50" relative="1" as="geometry">
            <mxPoint x="880" y="-20" as="sourcePoint" />
            <mxPoint x="860" y="-50" as="targetPoint" />
          </mxGeometry>
        </mxCell>
        <mxCell id="faN61myUjcGSdalwcWwm-65" value="" style="endArrow=none;html=1;rounded=0;" edge="1" parent="1">
          <mxGeometry width="50" height="50" relative="1" as="geometry">
            <mxPoint x="860" y="-50" as="sourcePoint" />
            <mxPoint x="860" as="targetPoint" />
          </mxGeometry>
        </mxCell>
        <mxCell id="faN61myUjcGSdalwcWwm-67" value="" style="endArrow=none;html=1;rounded=0;" edge="1" parent="1">
          <mxGeometry width="50" height="50" relative="1" as="geometry">
            <mxPoint x="860" as="sourcePoint" />
            <mxPoint x="920" as="targetPoint" />
          </mxGeometry>
        </mxCell>
        <mxCell id="faN61myUjcGSdalwcWwm-68" value="" style="endArrow=classic;html=1;rounded=0;entryX=0.05;entryY=0.288;entryDx=0;entryDy=0;entryPerimeter=0;" edge="1" parent="1" target="faN61myUjcGSdalwcWwm-5">
          <mxGeometry width="50" height="50" relative="1" as="geometry">
            <mxPoint x="920" as="sourcePoint" />
            <mxPoint x="930" y="-70" as="targetPoint" />
          </mxGeometry>
        </mxCell>
        <mxCell id="faN61myUjcGSdalwcWwm-69" value="&lt;div&gt;Đọc sản phẩm&lt;/div&gt;" style="text;html=1;align=center;verticalAlign=middle;whiteSpace=wrap;rounded=0;" vertex="1" parent="1">
          <mxGeometry x="864" y="-30" width="80" height="30" as="geometry" />
        </mxCell>
        <mxCell id="faN61myUjcGSdalwcWwm-70" value="" style="edgeStyle=elbowEdgeStyle;elbow=vertical;endArrow=classic;html=1;curved=0;rounded=0;endSize=8;startSize=8;exitX=1;exitY=0.5;exitDx=0;exitDy=0;entryX=0.5;entryY=0;entryDx=0;entryDy=0;" edge="1" parent="1" source="faN61myUjcGSdalwcWwm-6" target="faN61myUjcGSdalwcWwm-12">
          <mxGeometry width="50" height="50" relative="1" as="geometry">
            <mxPoint x="380" y="190" as="sourcePoint" />
            <mxPoint x="430" y="140" as="targetPoint" />
          </mxGeometry>
        </mxCell>
        <mxCell id="faN61myUjcGSdalwcWwm-71" value="&lt;div&gt;Lưu đơn hàng&lt;/div&gt;" style="text;html=1;align=center;verticalAlign=middle;whiteSpace=wrap;rounded=0;" vertex="1" parent="1">
          <mxGeometry x="620" y="-20" width="90" height="30" as="geometry" />
        </mxCell>
        <mxCell id="faN61myUjcGSdalwcWwm-75" value="" style="edgeStyle=segmentEdgeStyle;endArrow=classic;html=1;curved=0;rounded=0;endSize=8;startSize=8;exitX=0;exitY=0.5;exitDx=0;exitDy=0;entryX=0.69;entryY=1.007;entryDx=0;entryDy=0;entryPerimeter=0;" edge="1" parent="1" source="faN61myUjcGSdalwcWwm-12" target="faN61myUjcGSdalwcWwm-6">
          <mxGeometry width="50" height="50" relative="1" as="geometry">
            <mxPoint x="380" y="190" as="sourcePoint" />
            <mxPoint x="430" y="140" as="targetPoint" />
          </mxGeometry>
        </mxCell>
        <mxCell id="faN61myUjcGSdalwcWwm-77" value="&lt;div&gt;Đọc đơn hàng&lt;/div&gt;" style="text;html=1;align=center;verticalAlign=middle;whiteSpace=wrap;rounded=0;" vertex="1" parent="1">
          <mxGeometry x="590" y="70" width="80" height="30" as="geometry" />
        </mxCell>
        <mxCell id="faN61myUjcGSdalwcWwm-78" value="" style="endArrow=classic;html=1;rounded=0;exitX=0.987;exitY=0.372;exitDx=0;exitDy=0;exitPerimeter=0;entryX=0;entryY=0.25;entryDx=0;entryDy=0;" edge="1" parent="1" source="faN61myUjcGSdalwcWwm-6" target="faN61myUjcGSdalwcWwm-11">
          <mxGeometry width="50" height="50" relative="1" as="geometry">
            <mxPoint x="330" y="180" as="sourcePoint" />
            <mxPoint x="380" y="130" as="targetPoint" />
          </mxGeometry>
        </mxCell>
        <mxCell id="faN61myUjcGSdalwcWwm-79" value="&lt;div&gt;Đọc sản phẩm&lt;/div&gt;" style="text;html=1;align=center;verticalAlign=middle;whiteSpace=wrap;rounded=0;" vertex="1" parent="1">
          <mxGeometry x="610" y="-100" width="110" height="30" as="geometry" />
        </mxCell>
        <mxCell id="faN61myUjcGSdalwcWwm-87" value="" style="endArrow=none;html=1;rounded=0;exitX=0.375;exitY=0;exitDx=0;exitDy=0;exitPerimeter=0;" edge="1" parent="1" source="faN61myUjcGSdalwcWwm-6">
          <mxGeometry width="50" height="50" relative="1" as="geometry">
            <mxPoint x="380" y="140" as="sourcePoint" />
            <mxPoint x="560" y="-130" as="targetPoint" />
          </mxGeometry>
        </mxCell>
        <mxCell id="faN61myUjcGSdalwcWwm-88" value="" style="endArrow=none;html=1;rounded=0;" edge="1" parent="1">
          <mxGeometry width="50" height="50" relative="1" as="geometry">
            <mxPoint x="560" y="-130" as="sourcePoint" />
            <mxPoint x="40" y="-130" as="targetPoint" />
          </mxGeometry>
        </mxCell>
        <mxCell id="faN61myUjcGSdalwcWwm-90" value="" style="endArrow=none;html=1;rounded=0;" edge="1" parent="1">
          <mxGeometry width="50" height="50" relative="1" as="geometry">
            <mxPoint x="40" y="-130" as="sourcePoint" />
            <mxPoint x="40" y="150" as="targetPoint" />
          </mxGeometry>
        </mxCell>
        <mxCell id="faN61myUjcGSdalwcWwm-91" value="" style="endArrow=none;html=1;rounded=0;" edge="1" parent="1">
          <mxGeometry width="50" height="50" relative="1" as="geometry">
            <mxPoint x="40" y="150" as="sourcePoint" />
            <mxPoint x="420" y="150" as="targetPoint" />
          </mxGeometry>
        </mxCell>
        <mxCell id="faN61myUjcGSdalwcWwm-92" value="&lt;div&gt;Đọc kho&lt;/div&gt;" style="text;html=1;align=center;verticalAlign=middle;resizable=0;points=[];autosize=1;strokeColor=none;fillColor=none;" vertex="1" parent="1">
          <mxGeometry x="245" y="-162" width="70" height="30" as="geometry" />
        </mxCell>
        <mxCell id="faN61myUjcGSdalwcWwm-97" value="" style="endArrow=none;html=1;rounded=0;exitX=1;exitY=0;exitDx=0;exitDy=0;" edge="1" parent="1" source="faN61myUjcGSdalwcWwm-7">
          <mxGeometry width="50" height="50" relative="1" as="geometry">
            <mxPoint x="420" y="210" as="sourcePoint" />
            <mxPoint x="558" y="250" as="targetPoint" />
          </mxGeometry>
        </mxCell>
        <mxCell id="faN61myUjcGSdalwcWwm-99" value="" style="endArrow=classic;html=1;rounded=0;" edge="1" parent="1">
          <mxGeometry width="50" height="50" relative="1" as="geometry">
            <mxPoint x="560" y="250" as="sourcePoint" />
            <mxPoint x="470" y="250" as="targetPoint" />
          </mxGeometry>
        </mxCell>
        <mxCell id="faN61myUjcGSdalwcWwm-100" value="&lt;div&gt;Lưu kho&lt;/div&gt;" style="text;html=1;align=center;verticalAlign=middle;resizable=0;points=[];autosize=1;strokeColor=none;fillColor=none;" vertex="1" parent="1">
          <mxGeometry x="485" y="218" width="70" height="30" as="geometry" />
        </mxCell>
        <mxCell id="faN61myUjcGSdalwcWwm-103" value="" style="endArrow=none;html=1;rounded=0;exitX=0.75;exitY=1;exitDx=0;exitDy=0;" edge="1" parent="1" source="faN61myUjcGSdalwcWwm-13">
          <mxGeometry width="50" height="50" relative="1" as="geometry">
            <mxPoint x="420" y="210" as="sourcePoint" />
            <mxPoint x="445" y="310" as="targetPoint" />
          </mxGeometry>
        </mxCell>
        <mxCell id="faN61myUjcGSdalwcWwm-104" value="" style="endArrow=none;html=1;rounded=0;" edge="1" parent="1">
          <mxGeometry width="50" height="50" relative="1" as="geometry">
            <mxPoint x="445" y="310" as="sourcePoint" />
            <mxPoint x="505" y="310" as="targetPoint" />
          </mxGeometry>
        </mxCell>
        <mxCell id="faN61myUjcGSdalwcWwm-105" value="" style="endArrow=classic;html=1;rounded=0;entryX=0.213;entryY=0.081;entryDx=0;entryDy=0;entryPerimeter=0;" edge="1" parent="1" target="faN61myUjcGSdalwcWwm-7">
          <mxGeometry width="50" height="50" relative="1" as="geometry">
            <mxPoint x="505" y="310" as="sourcePoint" />
            <mxPoint x="515" y="290" as="targetPoint" />
          </mxGeometry>
        </mxCell>
        <mxCell id="faN61myUjcGSdalwcWwm-106" value="&lt;div&gt;Đọc kho&lt;/div&gt;" style="text;html=1;align=center;verticalAlign=middle;resizable=0;points=[];autosize=1;strokeColor=none;fillColor=none;" vertex="1" parent="1">
          <mxGeometry x="435" y="288" width="70" height="30" as="geometry" />
        </mxCell>
        <mxCell id="faN61myUjcGSdalwcWwm-109" value="" style="endArrow=none;html=1;rounded=0;exitX=0;exitY=0.5;exitDx=0;exitDy=0;" edge="1" parent="1" source="faN61myUjcGSdalwcWwm-10">
          <mxGeometry width="50" height="50" relative="1" as="geometry">
            <mxPoint x="440" y="20" as="sourcePoint" />
            <mxPoint x="90" y="-60" as="targetPoint" />
          </mxGeometry>
        </mxCell>
        <mxCell id="faN61myUjcGSdalwcWwm-110" value="" style="endArrow=none;html=1;rounded=0;" edge="1" parent="1">
          <mxGeometry width="50" height="50" relative="1" as="geometry">
            <mxPoint x="90" y="-60" as="sourcePoint" />
            <mxPoint x="90" y="100" as="targetPoint" />
          </mxGeometry>
        </mxCell>
        <mxCell id="faN61myUjcGSdalwcWwm-111" value="" style="endArrow=none;html=1;rounded=0;" edge="1" parent="1">
          <mxGeometry width="50" height="50" relative="1" as="geometry">
            <mxPoint x="90" y="100" as="sourcePoint" />
            <mxPoint x="410" y="100" as="targetPoint" />
          </mxGeometry>
        </mxCell>
        <mxCell id="faN61myUjcGSdalwcWwm-112" value="" style="endArrow=classic;html=1;rounded=0;" edge="1" parent="1">
          <mxGeometry width="50" height="50" relative="1" as="geometry">
            <mxPoint x="410" y="100" as="sourcePoint" />
            <mxPoint x="450" y="100" as="targetPoint" />
          </mxGeometry>
        </mxCell>
        <mxCell id="faN61myUjcGSdalwcWwm-113" value="&lt;div&gt;Lưu thanh toán&lt;/div&gt;" style="text;html=1;align=center;verticalAlign=middle;resizable=0;points=[];autosize=1;strokeColor=none;fillColor=none;" vertex="1" parent="1">
          <mxGeometry x="175" y="70" width="100" height="30" as="geometry" />
        </mxCell>
        <mxCell id="faN61myUjcGSdalwcWwm-114" value="" style="endArrow=none;html=1;rounded=0;exitX=0;exitY=0.75;exitDx=0;exitDy=0;" edge="1" parent="1" source="faN61myUjcGSdalwcWwm-120">
          <mxGeometry width="50" height="50" relative="1" as="geometry">
            <mxPoint x="440" y="130" as="sourcePoint" />
            <mxPoint x="60" y="120" as="targetPoint" />
          </mxGeometry>
        </mxCell>
        <mxCell id="faN61myUjcGSdalwcWwm-115" value="" style="endArrow=none;html=1;rounded=0;" edge="1" parent="1">
          <mxGeometry width="50" height="50" relative="1" as="geometry">
            <mxPoint x="60" y="120" as="sourcePoint" />
            <mxPoint x="60" y="-90" as="targetPoint" />
          </mxGeometry>
        </mxCell>
        <mxCell id="faN61myUjcGSdalwcWwm-117" value="" style="endArrow=none;html=1;rounded=0;" edge="1" parent="1">
          <mxGeometry width="50" height="50" relative="1" as="geometry">
            <mxPoint x="60" y="-90" as="sourcePoint" />
            <mxPoint x="110" y="-90" as="targetPoint" />
          </mxGeometry>
        </mxCell>
        <mxCell id="faN61myUjcGSdalwcWwm-118" value="" style="endArrow=classic;html=1;rounded=0;entryX=0;entryY=0;entryDx=0;entryDy=0;" edge="1" parent="1" target="faN61myUjcGSdalwcWwm-10">
          <mxGeometry width="50" height="50" relative="1" as="geometry">
            <mxPoint x="110" y="-90" as="sourcePoint" />
            <mxPoint x="490" y="80" as="targetPoint" />
          </mxGeometry>
        </mxCell>
        <mxCell id="faN61myUjcGSdalwcWwm-123" value="" style="endArrow=none;html=1;rounded=0;exitX=0;exitY=0.75;exitDx=0;exitDy=0;" edge="1" parent="1" source="faN61myUjcGSdalwcWwm-14" target="faN61myUjcGSdalwcWwm-120">
          <mxGeometry width="50" height="50" relative="1" as="geometry">
            <mxPoint x="445" y="113" as="sourcePoint" />
            <mxPoint x="60" y="120" as="targetPoint" />
          </mxGeometry>
        </mxCell>
        <mxCell id="faN61myUjcGSdalwcWwm-120" value="&lt;div&gt;Đọc thanh toán&lt;/div&gt;" style="text;html=1;align=center;verticalAlign=middle;resizable=0;points=[];autosize=1;strokeColor=none;fillColor=none;" vertex="1" parent="1">
          <mxGeometry x="114" y="100" width="100" height="30" as="geometry" />
        </mxCell>
        <mxCell id="faN61myUjcGSdalwcWwm-124" value="" style="endArrow=none;html=1;rounded=0;exitX=0.5;exitY=0;exitDx=0;exitDy=0;" edge="1" parent="1" source="faN61myUjcGSdalwcWwm-10">
          <mxGeometry width="50" height="50" relative="1" as="geometry">
            <mxPoint x="400" y="100" as="sourcePoint" />
            <mxPoint x="50" y="-100" as="targetPoint" />
          </mxGeometry>
        </mxCell>
        <mxCell id="faN61myUjcGSdalwcWwm-125" value="" style="endArrow=none;html=1;rounded=0;" edge="1" parent="1">
          <mxGeometry width="50" height="50" relative="1" as="geometry">
            <mxPoint x="50" y="-100" as="sourcePoint" />
            <mxPoint x="50" y="130" as="targetPoint" />
          </mxGeometry>
        </mxCell>
        <mxCell id="faN61myUjcGSdalwcWwm-126" value="" style="endArrow=none;html=1;rounded=0;" edge="1" parent="1">
          <mxGeometry width="50" height="50" relative="1" as="geometry">
            <mxPoint x="50" y="130" as="sourcePoint" />
            <mxPoint x="690" y="140" as="targetPoint" />
          </mxGeometry>
        </mxCell>
        <mxCell id="faN61myUjcGSdalwcWwm-127" value="" style="endArrow=classic;html=1;rounded=0;entryX=0.19;entryY=1.067;entryDx=0;entryDy=0;entryPerimeter=0;" edge="1" parent="1" target="faN61myUjcGSdalwcWwm-12">
          <mxGeometry width="50" height="50" relative="1" as="geometry">
            <mxPoint x="690" y="140" as="sourcePoint" />
            <mxPoint x="710" y="40" as="targetPoint" />
          </mxGeometry>
        </mxCell>
        <mxCell id="faN61myUjcGSdalwcWwm-128" value="&lt;div&gt;Đọc đơn hàng&lt;/div&gt;" style="text;html=1;align=center;verticalAlign=middle;resizable=0;points=[];autosize=1;strokeColor=none;fillColor=none;" vertex="1" parent="1">
          <mxGeometry x="480" y="140" width="100" height="30" as="geometry" />
        </mxCell>
        <mxCell id="faN61myUjcGSdalwcWwm-131" value="" style="endArrow=none;html=1;rounded=0;exitX=0.5;exitY=1;exitDx=0;exitDy=0;" edge="1" parent="1" source="faN61myUjcGSdalwcWwm-8">
          <mxGeometry width="50" height="50" relative="1" as="geometry">
            <mxPoint x="440" y="610" as="sourcePoint" />
            <mxPoint x="430" y="480" as="targetPoint" />
          </mxGeometry>
        </mxCell>
        <mxCell id="faN61myUjcGSdalwcWwm-133" value="" style="endArrow=classic;html=1;rounded=0;entryX=0.599;entryY=-0.053;entryDx=0;entryDy=0;entryPerimeter=0;" edge="1" parent="1" target="faN61myUjcGSdalwcWwm-15">
          <mxGeometry width="50" height="50" relative="1" as="geometry">
            <mxPoint x="430" y="480" as="sourcePoint" />
            <mxPoint x="490" y="560" as="targetPoint" />
          </mxGeometry>
        </mxCell>
        <mxCell id="faN61myUjcGSdalwcWwm-134" value="&lt;div&gt;Lưu nhà cung cấp&lt;/div&gt;" style="text;html=1;align=center;verticalAlign=middle;resizable=0;points=[];autosize=1;strokeColor=none;fillColor=none;" vertex="1" parent="1">
          <mxGeometry x="310" y="450" width="120" height="30" as="geometry" />
        </mxCell>
        <mxCell id="faN61myUjcGSdalwcWwm-135" value="" style="endArrow=none;html=1;rounded=0;exitX=0;exitY=0.5;exitDx=0;exitDy=0;" edge="1" parent="1" source="faN61myUjcGSdalwcWwm-15">
          <mxGeometry width="50" height="50" relative="1" as="geometry">
            <mxPoint x="440" y="610" as="sourcePoint" />
            <mxPoint x="210" y="720" as="targetPoint" />
          </mxGeometry>
        </mxCell>
        <mxCell id="faN61myUjcGSdalwcWwm-136" value="" style="endArrow=none;html=1;rounded=0;" edge="1" parent="1">
          <mxGeometry width="50" height="50" relative="1" as="geometry">
            <mxPoint x="210" y="720" as="sourcePoint" />
            <mxPoint x="210" y="530" as="targetPoint" />
          </mxGeometry>
        </mxCell>
        <mxCell id="faN61myUjcGSdalwcWwm-137" value="" style="endArrow=none;html=1;rounded=0;" edge="1" parent="1">
          <mxGeometry width="50" height="50" relative="1" as="geometry">
            <mxPoint x="210" y="530" as="sourcePoint" />
            <mxPoint x="250" y="530" as="targetPoint" />
          </mxGeometry>
        </mxCell>
        <mxCell id="faN61myUjcGSdalwcWwm-138" value="" style="endArrow=classic;html=1;rounded=0;" edge="1" parent="1">
          <mxGeometry width="50" height="50" relative="1" as="geometry">
            <mxPoint x="250" y="530" as="sourcePoint" />
            <mxPoint x="250" y="480" as="targetPoint" />
          </mxGeometry>
        </mxCell>
        <mxCell id="faN61myUjcGSdalwcWwm-139" value="Đọc nhà cung cấp" style="text;html=1;align=center;verticalAlign=middle;resizable=0;points=[];autosize=1;strokeColor=none;fillColor=none;" vertex="1" parent="1">
          <mxGeometry x="230" y="688" width="120" height="30" as="geometry" />
        </mxCell>
        <mxCell id="faN61myUjcGSdalwcWwm-140" value="" style="edgeStyle=elbowEdgeStyle;elbow=vertical;endArrow=classic;html=1;curved=0;rounded=0;endSize=8;startSize=8;exitX=0.693;exitY=0.02;exitDx=0;exitDy=0;exitPerimeter=0;entryX=0.25;entryY=1;entryDx=0;entryDy=0;" edge="1" parent="1" source="faN61myUjcGSdalwcWwm-8" target="faN61myUjcGSdalwcWwm-13">
          <mxGeometry width="50" height="50" relative="1" as="geometry">
            <mxPoint x="380" y="340" as="sourcePoint" />
            <mxPoint x="430" y="290" as="targetPoint" />
          </mxGeometry>
        </mxCell>
        <mxCell id="faN61myUjcGSdalwcWwm-141" value="&lt;div&gt;Lưu kho&lt;/div&gt;" style="text;html=1;align=center;verticalAlign=middle;resizable=0;points=[];autosize=1;strokeColor=none;fillColor=none;" vertex="1" parent="1">
          <mxGeometry x="294" y="310" width="70" height="30" as="geometry" />
        </mxCell>
        <mxCell id="faN61myUjcGSdalwcWwm-142" value="" style="endArrow=none;html=1;rounded=0;exitX=0;exitY=1;exitDx=0;exitDy=0;" edge="1" parent="1" source="faN61myUjcGSdalwcWwm-9">
          <mxGeometry width="50" height="50" relative="1" as="geometry">
            <mxPoint x="450" y="320" as="sourcePoint" />
            <mxPoint x="630" y="478" as="targetPoint" />
          </mxGeometry>
        </mxCell>
        <mxCell id="faN61myUjcGSdalwcWwm-143" value="" style="endArrow=none;html=1;rounded=0;" edge="1" parent="1">
          <mxGeometry width="50" height="50" relative="1" as="geometry">
            <mxPoint x="630" y="480" as="sourcePoint" />
            <mxPoint x="630" y="160" as="targetPoint" />
          </mxGeometry>
        </mxCell>
        <mxCell id="faN61myUjcGSdalwcWwm-144" value="" style="endArrow=none;html=1;rounded=0;" edge="1" parent="1">
          <mxGeometry width="50" height="50" relative="1" as="geometry">
            <mxPoint x="630" y="160" as="sourcePoint" />
            <mxPoint x="730" y="160" as="targetPoint" />
          </mxGeometry>
        </mxCell>
        <mxCell id="faN61myUjcGSdalwcWwm-145" value="" style="endArrow=classic;html=1;rounded=0;entryX=0.6;entryY=1;entryDx=0;entryDy=0;entryPerimeter=0;" edge="1" parent="1" target="faN61myUjcGSdalwcWwm-12">
          <mxGeometry width="50" height="50" relative="1" as="geometry">
            <mxPoint x="730" y="160" as="sourcePoint" />
            <mxPoint x="500" y="290" as="targetPoint" />
          </mxGeometry>
        </mxCell>
        <mxCell id="faN61myUjcGSdalwcWwm-146" value="&lt;div&gt;Đọc đơn hàng&lt;/div&gt;" style="text;html=1;align=center;verticalAlign=middle;resizable=0;points=[];autosize=1;strokeColor=none;fillColor=none;" vertex="1" parent="1">
          <mxGeometry x="690" y="480" width="100" height="30" as="geometry" />
        </mxCell>
        <mxCell id="faN61myUjcGSdalwcWwm-147" value="" style="endArrow=none;html=1;rounded=0;exitX=0.5;exitY=1;exitDx=0;exitDy=0;" edge="1" parent="1" source="faN61myUjcGSdalwcWwm-9">
          <mxGeometry width="50" height="50" relative="1" as="geometry">
            <mxPoint x="450" y="470" as="sourcePoint" />
            <mxPoint x="960" y="540" as="targetPoint" />
          </mxGeometry>
        </mxCell>
        <mxCell id="faN61myUjcGSdalwcWwm-148" value="" style="endArrow=none;html=1;rounded=0;" edge="1" parent="1">
          <mxGeometry width="50" height="50" relative="1" as="geometry">
            <mxPoint x="960" y="540" as="sourcePoint" />
            <mxPoint x="540" y="540" as="targetPoint" />
          </mxGeometry>
        </mxCell>
        <mxCell id="faN61myUjcGSdalwcWwm-149" value="" style="endArrow=none;html=1;rounded=0;" edge="1" parent="1">
          <mxGeometry width="50" height="50" relative="1" as="geometry">
            <mxPoint x="540" y="540" as="sourcePoint" />
            <mxPoint x="540" y="440" as="targetPoint" />
          </mxGeometry>
        </mxCell>
        <mxCell id="faN61myUjcGSdalwcWwm-150" value="" style="endArrow=none;html=1;rounded=0;" edge="1" parent="1">
          <mxGeometry width="50" height="50" relative="1" as="geometry">
            <mxPoint x="540" y="440" as="sourcePoint" />
            <mxPoint x="430" y="440" as="targetPoint" />
          </mxGeometry>
        </mxCell>
        <mxCell id="faN61myUjcGSdalwcWwm-151" value="" style="endArrow=classic;html=1;rounded=0;entryX=0.6;entryY=1;entryDx=0;entryDy=0;entryPerimeter=0;" edge="1" parent="1" target="faN61myUjcGSdalwcWwm-13">
          <mxGeometry width="50" height="50" relative="1" as="geometry">
            <mxPoint x="430" y="440" as="sourcePoint" />
            <mxPoint x="500" y="420" as="targetPoint" />
          </mxGeometry>
        </mxCell>
        <mxCell id="faN61myUjcGSdalwcWwm-153" value="&lt;div&gt;Đọc kho&lt;/div&gt;" style="text;html=1;align=center;verticalAlign=middle;resizable=0;points=[];autosize=1;strokeColor=none;fillColor=none;" vertex="1" parent="1">
          <mxGeometry x="615" y="538" width="70" height="30" as="geometry" />
        </mxCell>
        <mxCell id="faN61myUjcGSdalwcWwm-157" value="" style="endArrow=none;html=1;rounded=0;exitX=0.986;exitY=0.625;exitDx=0;exitDy=0;exitPerimeter=0;" edge="1" parent="1" source="faN61myUjcGSdalwcWwm-9">
          <mxGeometry width="50" height="50" relative="1" as="geometry">
            <mxPoint x="1020" y="460" as="sourcePoint" />
            <mxPoint x="1111.04" y="460.48" as="targetPoint" />
          </mxGeometry>
        </mxCell>
        <mxCell id="faN61myUjcGSdalwcWwm-158" value="" style="endArrow=none;html=1;rounded=0;" edge="1" parent="1">
          <mxGeometry width="50" height="50" relative="1" as="geometry">
            <mxPoint x="1110" y="460" as="sourcePoint" />
            <mxPoint x="1110" y="600" as="targetPoint" />
          </mxGeometry>
        </mxCell>
        <mxCell id="faN61myUjcGSdalwcWwm-159" value="" style="endArrow=none;html=1;rounded=0;" edge="1" parent="1">
          <mxGeometry width="50" height="50" relative="1" as="geometry">
            <mxPoint x="1110" y="600" as="sourcePoint" />
            <mxPoint x="590" y="600" as="targetPoint" />
          </mxGeometry>
        </mxCell>
        <mxCell id="faN61myUjcGSdalwcWwm-160" value="" style="endArrow=classic;html=1;rounded=0;" edge="1" parent="1">
          <mxGeometry width="50" height="50" relative="1" as="geometry">
            <mxPoint x="590" y="110" as="sourcePoint" />
            <mxPoint x="540" y="110" as="targetPoint" />
          </mxGeometry>
        </mxCell>
        <mxCell id="faN61myUjcGSdalwcWwm-161" value="" style="endArrow=none;html=1;rounded=0;" edge="1" parent="1">
          <mxGeometry width="50" height="50" relative="1" as="geometry">
            <mxPoint x="590" y="600" as="sourcePoint" />
            <mxPoint x="590" y="110" as="targetPoint" />
            <Array as="points">
              <mxPoint x="590" y="340" />
            </Array>
          </mxGeometry>
        </mxCell>
        <mxCell id="faN61myUjcGSdalwcWwm-162" value="&lt;div&gt;Đọc thanh toán&lt;/div&gt;" style="text;html=1;align=center;verticalAlign=middle;resizable=0;points=[];autosize=1;strokeColor=none;fillColor=none;" vertex="1" parent="1">
          <mxGeometry x="740" y="568" width="100" height="30" as="geometry" />
        </mxCell>
      </root>
    </mxGraphModel>
  </diagram>
</mxfile>
